<svg xmlns="http://www.w3.org/2000/svg" width="455.34109mm" height="71.115417mm" viewBox="0 0 455.34109 71.115417"><g style="stroke-width:.345148"><g style="stroke-width:.345148"><path d="M0 0v-8.739S15.811-10.98 15.811 7.046c0 0 1.05 15.693-15.811 15.693h-12.094s-14.439 1.329-14.439-15.783S-9.778-8.827-9.778-8.827l.182 8.736s-8.956-1.34-8.956 7.047c0 0-1.157 6.861 7.25 6.861H.64s7.433.431 7.433-6.861C8.073 6.956 9.17 0 0 0" style="fill:#3f456c;fill-opacity:1;fill-rule:nonzero;stroke:none;stroke-width:.345148" transform="matrix(0 -1.0221 -1.0221 0 23.266 43.995)"/></g><g style="stroke-width:.345148"><path d="m0 0 15.263-5.093L0-10.371Zm25.374-9.943v9.15l-40.303 14.732V5.246l8.134-3.294v-13.771l-8.134-3.158v-9.15z" style="fill:#3f456c;fill-opacity:1;fill-rule:nonzero;stroke:none;stroke-width:.345148" transform="matrix(0 -1.0221 -1.0221 0 48.643 54.519)"/></g><g style="stroke-width:.345148"><path d="M0 0h40.882v-26.964h-8.347v17.813h-8.53v-15.312h-7.859v15.435H0Z" style="fill:#3f456c;fill-opacity:1;fill-rule:nonzero;stroke:none;stroke-width:.345148" transform="matrix(0 -1.0221 -1.0221 0 78.354 70.368)"/></g><g style="stroke-width:.345148"><path d="M0 0h40.882v-26.964h-8.347V-9.15h-8.53v-15.313h-7.859v15.435H0Z" style="fill:#3f456c;fill-opacity:1;fill-rule:nonzero;stroke:none;stroke-width:.345148" transform="matrix(0 -1.0221 -1.0221 0 112.586 70.368)"/></g><g style="stroke-width:.345148"><path d="M0 0h8.347v26.963h-40.882V0h8.896v17.935h7.25V2.502h7.859v15.31H0Z" style="fill:#3f456c;fill-opacity:1;fill-rule:nonzero;stroke:none;stroke-width:.345148" transform="matrix(0 -1.0221 -1.0221 0 174.377 37.114)"/></g><g style="stroke-width:.345148"><path d="M0 0h14.206v48.909h-69.577V0h15.139v32.533h12.338V4.535h13.378v27.776H0Z" style="fill:#3f456c;fill-opacity:1;fill-rule:nonzero;stroke:none;stroke-width:.345148" transform="matrix(0 -1.0221 -1.0221 0 319.911 14.52)"/></g><g style="stroke-width:.345148"><path d="M0 0h14.206v48.91h-69.577V0h15.139v32.533h12.338V4.536h13.378v27.776H0Z" style="fill:#3f456c;fill-opacity:1;fill-rule:nonzero;stroke:none;stroke-width:.345148" transform="matrix(0 -1.0221 -1.0221 0 455.341 14.52)"/></g><g style="stroke-width:.345148"><path d="M0 0c-1.948 0-3.431.294-4.557.727-2.124.817-3.5 2.885-3.5 5.165v17.791H6.747V5.134C6.747-.21 0 0 0 0m32.886 23.683V7.486c0-4.667-6.124-4.483-6.124-4.483-2.015 0-3.48.332-4.542.799-1.703.745-2.77 2.465-2.77 4.326v15.555ZM10.913-11.062a7.04 7.04 0 0 1 1.939 3.169c.187.647.521 1.309 1.116 1.378 1.187.138 1.781-.96 2.01-1.509 0 0 2.406-5.933 15.688-4.713 0 0 15.488 2.806 15.488 18.912l-.012 33.674h-69.03V3.979s.791-19.888 18.338-19.888c0 0 8.536-.704 14.463 4.847" style="fill:#3f456c;fill-opacity:1;fill-rule:nonzero;stroke:none;stroke-width:.345148" transform="matrix(0 -1.0221 -1.0221 0 242.873 48.744)"/></g><g style="stroke-width:.345148"><path d="M0 0h-69.042v-17.202h37.592l-37.592-24.525v-15.921H0v16.96h-37.908L0-15.007Z" style="fill:#3f456c;fill-opacity:1;fill-rule:nonzero;stroke:none;stroke-width:.345148" transform="matrix(0 -1.0221 -1.0221 0 331.837 .547)"/></g></g></svg>